<svg xmlns="http://www.w3.org/2000/svg" viewBox="0 0 78.04 32.57"><defs><style>.cls-1,.cls-2,.cls-5,.cls-6{fill:#fff;}.cls-2,.cls-3,.cls-4,.cls-5,.cls-6,.cls-7{fill-rule:evenodd;}.cls-3,.cls-4,.cls-7{fill:#bae2f8;}.cls-4,.cls-6{opacity:0.8;}.cls-5{opacity:0.7;}.cls-7{opacity:0.6;}</style></defs><title>logo_1</title><g id="图层_2" data-name="图层 2"><g id="图层_1-2" data-name="图层 1"><path class="cls-1" d="M51.21,2.35a94.19,94.19,0,0,0,9.89-.49l.33.91q-4.41.32-9.28.4v3.6q0,4.5-1.51,6.47-.35-.41-.7-.76,1.28-1.57,1.28-5.63ZM57.38,8.1a9.19,9.19,0,0,1-.15,2.2q2.14.94,4.39,2.05l-.5.87Q58.86,12,56.93,11.09q-.91,1.56-4.54,2.17-.2-.37-.5-.86,3.64-.56,4.27-1.8a5.7,5.7,0,0,0,.3-2.5ZM53.32,6.67h3.12V5.31H52.59V4.49h3.84V3.21h.94V4.49h4v.82h-4V6.67h3.15V10.8h-.91V7.49H54.23v3.3h-.91Z"/><path class="cls-1" d="M62,7.89l1.66-.42V4.76H62.1V3.92H63.7V1.64h.91V3.92h1.2v.84h-1.2V7.23l1.17-.33a8.42,8.42,0,0,0,.08.91l-1.25.36v3.62Q64.62,13,63.5,13L62.3,13a8.65,8.65,0,0,0-.15-1,9.64,9.64,0,0,0,1,.08q.53,0,.53-.55V8.44l-1.55.46Zm4.38.18h6.66v.82H70.2V11.8h3.45v.87h-8V11.8h3.63V8.89H66.42Zm2.8-2.39q-1.37,1.23-2.6,2.2L66,7.18A23.16,23.16,0,0,0,68.55,5Zm-3-2.27h3.36q-.43-.69-1-1.37l.75-.48q.66.81,1.11,1.46l-.58.39h3.38V5.51H72.4V4.26H67.16V5.51h-.91Zm4.08,2.26.62-.61q1.56,1.14,2.64,2.1l-.66.74A27.09,27.09,0,0,0,70.32,5.66Z"/><path class="cls-1" d="M55.43,31.56a2.87,2.87,0,0,1-.85.11,2.74,2.74,0,0,1-1.33-.34,7.67,7.67,0,0,1-1.74-1.61A3.18,3.18,0,0,1,49,28.65a4,4,0,0,1-1-2.74A4.15,4.15,0,0,1,49,23a3.5,3.5,0,0,1,2.71-1.08A3.24,3.24,0,0,1,54.24,23a3.94,3.94,0,0,1,1,2.76,4.5,4.5,0,0,1-.68,2.53,3.08,3.08,0,0,1-1.93,1.32,4.89,4.89,0,0,0,1.07.94,2,2,0,0,0,1,.25,2,2,0,0,0,.76-.13Zm-6.37-5.73a3.29,3.29,0,0,0,.7,2.2,2.28,2.28,0,0,0,1.83.83,2.39,2.39,0,0,0,1.9-.79,3.27,3.27,0,0,0,.69-2.22,3.39,3.39,0,0,0-.68-2.26,2.3,2.3,0,0,0-1.85-.8,2.35,2.35,0,0,0-1.87.84A3.27,3.27,0,0,0,49.06,25.83Z"/><path class="cls-1" d="M63.51,29.6v-5q0-.62.07-1.49h0a4.59,4.59,0,0,1-.22.76l-2.5,5.74H60.3l-2.49-5.69a5.08,5.08,0,0,1-.22-.81h0q0,.53,0,1.53v5h-.93V22H58l2.23,5.19a6.83,6.83,0,0,1,.34.93h0q.25-.7.36-.95L63.22,22h1.26V29.6Z"/><path class="cls-1" d="M72.38,29.6H71.3l-.77-2.07H67.38l-.73,2.07H65.57L68.46,22h1Zm-2.15-2.92-1.14-3.14A3.5,3.5,0,0,1,69,23h0a2.9,2.9,0,0,1-.12.53l-1.13,3.14Z"/><path class="cls-1" d="M73.12,28.18a2.71,2.71,0,0,0,.93.5,3.46,3.46,0,0,0,1.1.2q1.59,0,1.59-1.13a1,1,0,0,0-.17-.57,1.64,1.64,0,0,0-.47-.45,12.19,12.19,0,0,0-1.12-.6,4.31,4.31,0,0,1-1.5-1.05A1.81,1.81,0,0,1,73.13,24a1.75,1.75,0,0,1,.76-1.49,3.16,3.16,0,0,1,1.91-.55,3.78,3.78,0,0,1,1.66.27v1.06a3,3,0,0,0-1.73-.47,2,2,0,0,0-1.13.29.92.92,0,0,0-.44.81,1,1,0,0,0,.3.75,6.08,6.08,0,0,0,1.31.79,4.66,4.66,0,0,1,1.56,1.06,1.82,1.82,0,0,1,.44,1.2A1.78,1.78,0,0,1,77,29.19a3.32,3.32,0,0,1-2,.53,5.23,5.23,0,0,1-1-.12,2.54,2.54,0,0,1-.87-.31Z"/><path class="cls-2" d="M78,18.1H48v-1H78Z"/><path class="cls-1" d="M20.65,14.63a7.34,7.34,0,0,0,1.22-1.45l.8.47a1.57,1.57,0,0,0-.23.19q.8.52,1.59,1.1t1.27,1a4.1,4.1,0,0,0-.61.66L24.07,16v2.58q0,.66,0,1.5h-.8V19.6H21.07v.47h-.8q0-.84,0-1.55V15.8q-.42.38-.8.66a5.35,5.35,0,0,0-.61-.61A7.83,7.83,0,0,0,20.65,14.63Zm-.3-.45q-.3.31-.82.77a1.86,1.86,0,0,0-.56-.52q.56-.47.82-.73a3.52,3.52,0,0,0,.45-.54,3.14,3.14,0,0,0,.66.52A6.76,6.76,0,0,0,20.35,14.19Zm2-4.9a5.7,5.7,0,0,0,0,.7h1.17q.38,0,.94,0v.75q-.52,0-.94,0H22.29v.61h2.63a7.62,7.62,0,0,0,0,1.69h-.75v-1h-4V13h-.8a6.43,6.43,0,0,0,0-.8q0-.42,0-.94H21.5q0-1.5,0-2Zm-1.55,3.09h2.72v.7q-.7,0-1.41,0t-1.31,0Zm2.53,2.91-1.27-1a8.86,8.86,0,0,1-1.12,1Zm0,1.22v-.56H21.07v.56Zm0,1.22v-.56H21.07v.56Zm0,1.22v-.56H21.07v.56Zm1.24-5.32q.26.21.59.54a4.57,4.57,0,0,0-.56.56q-.23-.28-.49-.54a4.69,4.69,0,0,0-.77-.59q.19-.19.52-.56ZM25.2,11q.84,0,1.69,0h2.63a17.44,17.44,0,0,1-.59,3.21,24.45,24.45,0,0,1-1,2.65,6.11,6.11,0,0,0,.94,1.41,6.61,6.61,0,0,0,1.22,1,3.39,3.39,0,0,0-.84.61,8.87,8.87,0,0,1-1-1.12q-.47-.61-.84-1.17-.66.84-1.17,1.43a9.77,9.77,0,0,1-1.08,1.05,5.55,5.55,0,0,0-.8-.61,7.33,7.33,0,0,0,1.34-1,6.79,6.79,0,0,0,1.24-1.62A12.69,12.69,0,0,1,26,14.3q-.19-1-.37-2.58H25.2Zm1.71,3.56a8.44,8.44,0,0,0,.54,1.5,14,14,0,0,0,.8-2.32,11.16,11.16,0,0,0,.33-2H26.46A18.31,18.31,0,0,0,26.91,14.54Z"/><path class="cls-1" d="M34.15,10.88q0-.84,0-1.41h1.08a8.26,8.26,0,0,0-.09,1.41H37.9q0-1,0-1.55h1q0,.52,0,1.55H40.1q.89,0,1.73,0v.89q-.8,0-1.73,0H38.84q0,.89,0,1.64h-1V11.68H35.09v1.69h-1a13,13,0,0,0,.09-1.69H32.7q-.56,0-1.41,0v-.89q.8,0,1.41,0ZM33,16.39q-.26,1-.73,2.32-.47-.19-.94-.33a11.52,11.52,0,0,0,.59-1.76q.26-1,.4-1.85.56.14,1.13.23A10.41,10.41,0,0,0,33,16.39Zm2.23-.63v2.72q0,.56.47.56h2.53a.55.55,0,0,0,.47-.19A3.94,3.94,0,0,0,39,17.68a2.19,2.19,0,0,0,1,.47,5.09,5.09,0,0,1-.54,1.31,1.27,1.27,0,0,1-1.1.38h-3q-1.12,0-1.12-.84V15.76q0-.75,0-1.31h1.08Q35.18,15.1,35.18,15.76Zm3-.09a9,9,0,0,0-.89.61,14.24,14.24,0,0,0-1.45-2.34,3.55,3.55,0,0,0,.8-.47A24.14,24.14,0,0,1,38.18,15.66Zm3.75,1.73A5.4,5.4,0,0,0,41,18a19.14,19.14,0,0,0-1.83-2.86,4,4,0,0,0,.84-.56Q41,15.9,41.93,17.4Z"/><path class="cls-1" d="M19.17,7.39V1.66h2.54a3.37,3.37,0,0,1,1.16.15,1.28,1.28,0,0,1,.64.54,1.62,1.62,0,0,1,.24.86,1.44,1.44,0,0,1-.39,1,2,2,0,0,1-1.22.53,2,2,0,0,1,.46.29,3.94,3.94,0,0,1,.63.76l1,1.56h-1L22.5,6.2q-.33-.52-.55-.79A1.73,1.73,0,0,0,21.57,5a1.15,1.15,0,0,0-.35-.15,2.29,2.29,0,0,0-.42,0h-.88V7.39Zm.76-3.2h1.63a2.44,2.44,0,0,0,.81-.11.86.86,0,0,0,.45-.34A.93.93,0,0,0,23,3.22a.85.85,0,0,0-.29-.67,1.38,1.38,0,0,0-.93-.26H19.93Z"/><path class="cls-1" d="M27.4,7.39V6.78a1.52,1.52,0,0,1-1.32.7,1.68,1.68,0,0,1-.69-.14A1.13,1.13,0,0,1,24.93,7a1.34,1.34,0,0,1-.22-.52,3.6,3.6,0,0,1,0-.66V3.24h.7v2.3a4.13,4.13,0,0,0,0,.74.73.73,0,0,0,.28.44.87.87,0,0,0,.53.16,1.16,1.16,0,0,0,.59-.16.9.9,0,0,0,.39-.44,2.21,2.21,0,0,0,.12-.81V3.24H28V7.39Z"/><path class="cls-1" d="M29,2.47V1.66h.7v.81Zm0,4.92V3.24h.7V7.39Z"/><path class="cls-1" d="M31.36,7.39l2.21-3-2-2.74h.9l1,1.47a8.35,8.35,0,0,1,.46.7,7.45,7.45,0,0,1,.45-.65l1.15-1.52h.82l-2,2.7,2.17,3h-.94l-1.44-2L34,5l-.27.43-1.44,2Z"/><path class="cls-1" d="M37,2.47V1.66h.7v.81Zm0,4.92V3.24h.7V7.39Z"/><path class="cls-1" d="M38.65,7.39V3.24h.63v.59a1.49,1.49,0,0,1,1.32-.68,1.73,1.73,0,0,1,.69.13,1.08,1.08,0,0,1,.47.35,1.36,1.36,0,0,1,.22.52,4,4,0,0,1,0,.68V7.39h-.7V4.86a1.89,1.89,0,0,0-.08-.64.67.67,0,0,0-.29-.34.93.93,0,0,0-.49-.13,1.14,1.14,0,0,0-.78.29,1.41,1.41,0,0,0-.33,1.08V7.39Z"/><path class="cls-3" d="M10.66,9.58A21.46,21.46,0,0,1,12.48.91L10,0A22.18,22.18,0,0,0,8.38,8.41a22.5,22.5,0,0,0,.13,2.45H10.7C10.68,10.45,10.66,10,10.66,9.58Z"/><path class="cls-2" d="M32.15,26a18.17,18.17,0,0,1-12.2-4.69l-1.07.61A22.12,22.12,0,0,0,32,26.69l.42-.7Z"/><path class="cls-4" d="M11.65,25.9l1.83-1.09A22.19,22.19,0,0,1,4.64,7.06a22.53,22.53,0,0,1,.22-3.13L1.13,3.21A25.72,25.72,0,0,0,1,5.86a25.37,25.37,0,0,0,.68,5.85h.73A23.87,23.87,0,0,0,11.65,25.9Z"/><path class="cls-5" d="M11.19,26.17l.46-.27A23.87,23.87,0,0,1,2.39,11.71H1.67A25.34,25.34,0,0,0,11.19,26.17Z"/><path class="cls-6" d="M14.53,27.7a23.94,23.94,0,0,1-2.88-1.8l-.46.27A25.34,25.34,0,0,1,1.67,11.71H0A26.83,26.83,0,0,0,16.83,30.37l.43-.37a26.73,26.73,0,0,1-3.62-1.7Z"/><path class="cls-3" d="M14.53,27.7l-.89.59A26.73,26.73,0,0,0,17.26,30l.87-.75A23.87,23.87,0,0,1,14.53,27.7Z"/><path class="cls-2" d="M9.85,17.88A18.7,18.7,0,0,1,8,3.14L6.57,2.81A20.07,20.07,0,0,0,10.42,20.6l.57-.17A22.28,22.28,0,0,1,9.32,18Z"/><path class="cls-2" d="M16.76,22.49l.86-.45a16.36,16.36,0,0,1-5-6.88l-2,.42a17.7,17.7,0,0,0,.89,1.86l.83-.22A22.27,22.27,0,0,0,16.76,22.49Z"/><path class="cls-3" d="M16.76,22.49l-.66.34a17.61,17.61,0,0,1-4.63-5.39l-1.62.43a18.63,18.63,0,0,0,1.68,2.4l-.54.16a22.34,22.34,0,0,0,6.92,5.77l.87-.67a22.08,22.08,0,0,0,4.73,2l.74-.8A22.21,22.21,0,0,1,16.76,22.49Z"/><path class="cls-4" d="M9.85,17.88,9.32,18A22.28,22.28,0,0,0,11,20.43l.54-.16A18.63,18.63,0,0,1,9.85,17.88Z"/><path class="cls-4" d="M16.1,22.84l.66-.34a22.27,22.27,0,0,1-4.46-5.27l-.83.22A17.61,17.61,0,0,0,16.1,22.84Z"/><path class="cls-2" d="M23.51,27.56l-.54.59a22.19,22.19,0,0,1-5.05-2l-.32.25a22.13,22.13,0,0,0,6.1,2.33l.9-.93Q24,27.72,23.51,27.56Z"/><path class="cls-4" d="M23.51,27.56a22.08,22.08,0,0,1-4.73-2l-.87.67a22.19,22.19,0,0,0,5.05,2Z"/><path class="cls-2" d="M31.48,28a18,18,0,0,0,4.33-.52l.12-.39a22.25,22.25,0,0,1-5,.56,22.35,22.35,0,0,1-4.16-.39l-.85,1a22.5,22.5,0,0,0,4.2.39h.12l.36-.64Z"/><path class="cls-4" d="M45.44,21.41a18,18,0,0,1-9.62,6.11l-.15.46a22.31,22.31,0,0,1-5.39.69l-.44.78.8,0A18.39,18.39,0,0,0,45.7,21.64Z"/><path class="cls-3" d="M35.82,27.52a18,18,0,0,1-4.33.52l-.84,0-.36.64A22.31,22.31,0,0,0,35.67,28Z"/><path class="cls-7" d="M27.31,31.5a24.59,24.59,0,0,0,10.3-2.25l.15-.64a26.56,26.56,0,0,1-9.28,1.67A26.48,26.48,0,0,1,15.63,27l-1.09.73a23.87,23.87,0,0,0,3.6,1.55l-.87.75a26.8,26.8,0,0,0,3.47,1.07l.32-.36A24.72,24.72,0,0,0,27.31,31.5Z"/><path class="cls-2" d="M43.63,25.33a24.71,24.71,0,0,1-6,3.92l-.1.43A27.1,27.1,0,0,1,27,31.79a27.28,27.28,0,0,1-6.27-.73l-.58.66a24.71,24.71,0,0,0,6.46.85,24.6,24.6,0,0,0,17-6.82Z"/><path class="cls-3" d="M37.51,29.68l.1-.43a24.59,24.59,0,0,1-10.3,2.25,24.72,24.72,0,0,1-6.26-.8l-.32.36a27.28,27.28,0,0,0,6.27.73A27.1,27.1,0,0,0,37.51,29.68Z"/><path class="cls-2" d="M37,27.31l-.11.49A17.54,17.54,0,0,0,46,21l-.07,0A17.51,17.51,0,0,1,37,27.31Z"/></g></g></svg>